# xmcd CD database file
#
# Track frame offsets:
#	150
#	10084
#	22132
#	32130
#	43047
#	53467
#	65950
#	75162
#	85080
#	94732
#
# Disc length: 1406 seconds
#
# Revision: 1
# Processed by: cddbd v1.5.2PL0 Copyright (c) Steve Scherf et al.
# Submitted via: jetAudio 7
#
DISCID=71057c0a
DTITLE=Chet Atkins - A Tribute To Bluegrass
DYEAR=2002
DGENRE=Bluegrass
TTITLE0=Walk Right In
TTITLE1=Rocky Top
TTITLE2=Wildwood Flower
TTITLE3=Sittin' On Top Of The World
TTITLE4=Arkansas Traveler
TTITLE5=Wabash Cannon Ball
TTITLE6=Freight Train
TTITLE7=Back Up And Push
TTITLE8=Copper Kettle
TTITLE9=Black Mountain Rag
EXTD=All tracks originally recorded prior to 1972.
EXTT0=
EXTT1=
EXTT2=
EXTT3=
EXTT4=
EXTT5=
EXTT6=
EXTT7=
EXTT8=
EXTT9=
PLAYORDER=
